# Blender v2.83.2 OBJ File: 'sobaka.blend'
# www.blender.org
mtllib sobaka.mtl
o BezierCurve.001_BezierCurve.004
v -1.578518 2.054756 0.000000
v -1.459752 2.243768 0.000000
v -1.308205 2.394038 0.000000
v -1.069659 2.478554 0.000000
v -0.767272 2.518043 0.000000
v -0.483768 2.483840 0.000000
v -0.067343 2.301411 0.000000
v 0.301881 2.151946 0.000000
v 0.642887 2.105096 0.000000
v 0.936236 2.166872 0.000000
v 1.284257 2.241662 0.000000
v 1.653228 2.193646 0.000000
v 1.941774 2.023364 0.000000
v 2.007215 1.914063 0.000000
v 2.007148 1.834913 0.000000
v 2.051647 1.722893 0.000000
v 2.042864 1.629106 0.000000
v 1.982343 1.515652 0.000000
v 1.968681 1.417938 0.000000
v 2.027779 1.317871 0.000000
v 2.060344 1.204722 0.000000
v 2.018013 1.050198 0.000000
v 1.898046 0.968280 0.000000
v 1.695294 0.963748 0.000000
v 1.392406 0.911174 0.000000
v 1.341273 0.859847 0.000000
v 1.356938 0.797656 0.000000
v 1.358771 0.751970 0.000000
v 1.310389 0.688002 0.000000
v 1.293212 0.597135 0.000000
v 1.349802 0.498588 0.000000
v 1.469522 0.498922 0.000000
v 1.606104 0.588675 0.000000
v 1.688392 0.666762 0.000000
v 1.857691 0.731584 0.000000
v 2.129062 0.760192 0.000000
v 2.370057 0.776635 0.000000
v 2.514360 0.760940 0.000000
v 2.657088 0.669108 0.000000
v 2.713131 0.469438 0.000000
v 2.705968 0.064498 0.000000
v 2.696958 -0.615156 -0.000000
v 2.683981 -1.118123 -0.000000
v 2.664278 -1.332715 -0.000000
v 2.594393 -1.684493 -0.000000
v 2.437326 -2.086805 -0.000000
v 2.381192 -2.198916 -0.000000
v 2.319058 -2.309312 -0.000000
v 2.244487 -2.389518 -0.000000
v 1.967641 -2.406448 -0.000000
v 1.508601 -2.363373 -0.000000
v 1.132297 -2.315521 -0.000000
v 1.182645 -2.028986 -0.000000
v 1.159081 -1.593010 -0.000000
v 0.914792 -1.227997 -0.000000
v 0.914812 -1.145763 -0.000000
v 0.911180 -1.041151 -0.000000
v 0.912550 -0.920799 -0.000000
v 0.785671 -0.487352 -0.000000
v 0.811604 -0.052953 -0.000000
v 0.605352 0.137575 0.000000
v 0.621899 0.210923 0.000000
v 0.603899 0.290703 0.000000
v 0.470813 0.272114 0.000000
v 0.425655 0.311910 0.000000
v 0.346448 0.346678 0.000000
v 0.190524 0.388714 0.000000
v 0.146496 0.442687 0.000000
v 0.071956 0.563174 0.000000
v -0.130128 0.731789 0.000000
v -0.192674 0.799826 0.000000
v -0.263060 0.907934 0.000000
v -0.325210 1.012079 0.000000
v -0.370320 1.081816 0.000000
v -0.434226 1.157742 0.000000
v -0.495626 1.182495 0.000000
v -0.562771 1.078037 0.000000
v -0.571563 0.905140 0.000000
v -0.701919 0.698154 0.000000
v -0.774065 0.575870 0.000000
v -0.859087 0.340132 0.000000
v -0.903727 0.065820 0.000000
v -0.897620 -0.044330 -0.000000
v -0.858578 -0.195819 -0.000000
v -0.760219 -0.308647 -0.000000
v -0.798875 -0.347873 -0.000000
v -0.875852 -0.367647 -0.000000
v -1.004632 -0.342282 -0.000000
v -1.073849 0.066374 0.000000
v -1.073259 0.238360 0.000000
v -1.132444 0.348352 0.000000
v -1.022941 0.608434 0.000000
v -0.952257 0.801764 0.000000
v -0.955301 1.104014 0.000000
v -0.979334 1.177416 0.000000
v -1.041821 1.215318 0.000000
v -1.152625 1.139891 0.000000
v -1.357095 0.964336 0.000000
v -1.542135 0.852525 0.000000
v -1.753566 0.639854 0.000000
v -1.785197 0.544356 0.000000
v -1.799912 0.392143 0.000000
v -1.796170 0.227267 0.000000
v -1.894655 0.222459 0.000000
v -1.969248 0.223720 0.000000
v -2.042825 0.245206 0.000000
v -2.014328 0.385152 0.000000
v -1.954964 0.632819 0.000000
v -1.928467 0.929113 0.000000
v -1.802969 0.998911 0.000000
v -1.716365 1.192115 0.000000
v -1.832047 1.448159 0.000000
v -1.897230 1.483048 0.000000
v -1.989844 1.534969 0.000000
v -2.161668 1.676875 0.000000
v -2.167314 1.706573 0.000000
v -2.168502 1.736890 0.000000
v -2.159425 1.757733 0.000000
v -2.095368 1.763803 0.000000
v -2.007533 1.773730 0.000000
v -1.954479 1.785894 0.000000
v -1.896602 1.754165 0.000000
v -1.817613 1.717138 0.000000
v -1.747447 1.707149 0.000000
v -1.708518 1.728148 0.000000
v -1.689848 1.774097 0.000000
v -1.689040 1.847430 0.000000
v -1.653707 1.901436 0.000000
v -1.639916 1.941402 0.000000
vt 0.023438 0.000000
vt 0.039062 0.000000
vt 0.031250 0.000000
vt 0.046875 0.000000
vt 0.015625 0.000000
vt 0.007812 0.000000
vt 0.054688 0.000000
vt 0.000000 0.000000
vt 0.070312 0.000000
vt 0.085938 0.000000
vt 0.078125 0.000000
vt 0.093750 0.000000
vt 0.062500 0.000000
vt 1.000000 0.000000
vt 0.101562 0.000000
vt 0.992188 0.000000
vt 0.109375 0.000000
vt 0.984375 0.000000
vt 0.976562 0.000000
vt 0.117188 0.000000
vt 0.929688 0.000000
vt 0.945312 0.000000
vt 0.937500 0.000000
vt 0.968750 0.000000
vt 0.921875 0.000000
vt 0.914062 0.000000
vt 0.906250 0.000000
vt 0.953125 0.000000
vt 0.898438 0.000000
vt 0.960938 0.000000
vt 0.125000 0.000000
vt 0.890625 0.000000
vt 0.882812 0.000000
vt 0.132812 0.000000
vt 0.875000 0.000000
vt 0.140625 0.000000
vt 0.867188 0.000000
vt 0.859375 0.000000
vt 0.742188 0.000000
vt 0.148438 0.000000
vt 0.156250 0.000000
vt 0.750000 0.000000
vt 0.734375 0.000000
vt 0.585938 0.000000
vt 0.164062 0.000000
vt 0.851562 0.000000
vt 0.593750 0.000000
vt 0.578125 0.000000
vt 0.726562 0.000000
vt 0.570312 0.000000
vt 0.757812 0.000000
vt 0.718750 0.000000
vt 0.562500 0.000000
vt 0.601562 0.000000
vt 0.171875 0.000000
vt 0.554688 0.000000
vt 0.179688 0.000000
vt 0.843750 0.000000
vt 0.765625 0.000000
vt 0.187500 0.000000
vt 0.835938 0.000000
vt 0.195312 0.000000
vt 0.546875 0.000000
vt 0.609375 0.000000
vt 0.203125 0.000000
vt 0.773438 0.000000
vt 0.710938 0.000000
vt 0.539062 0.000000
vt 0.210938 0.000000
vt 0.273438 0.000000
vt 0.289062 0.000000
vt 0.281250 0.000000
vt 0.296875 0.000000
vt 0.265625 0.000000
vt 0.218750 0.000000
vt 0.531250 0.000000
vt 0.257812 0.000000
vt 0.617188 0.000000
vt 0.226562 0.000000
vt 0.304688 0.000000
vt 0.250000 0.000000
vt 0.781250 0.000000
vt 0.828125 0.000000
vt 0.703125 0.000000
vt 0.234375 0.000000
vt 0.242188 0.000000
vt 0.625000 0.000000
vt 0.523438 0.000000
vt 0.789062 0.000000
vt 0.312500 0.000000
vt 0.515625 0.000000
vt 0.796875 0.000000
vt 0.507812 0.000000
vt 0.820312 0.000000
vt 0.695312 0.000000
vt 0.500000 0.000000
vt 0.632812 0.000000
vt 0.492188 0.000000
vt 0.484375 0.000000
vt 0.476562 0.000000
vt 0.812500 0.000000
vt 0.687500 0.000000
vt 0.804688 0.000000
vt 0.468750 0.000000
vt 0.460938 0.000000
vt 0.679688 0.000000
vt 0.640625 0.000000
vt 0.320312 0.000000
vt 0.648438 0.000000
vt 0.453125 0.000000
vt 0.656250 0.000000
vt 0.664062 0.000000
vt 0.671875 0.000000
vt 0.445312 0.000000
vt 0.328125 0.000000
vt 0.437500 0.000000
vt 0.429688 0.000000
vt 0.335938 0.000000
vt 0.421875 0.000000
vt 0.414062 0.000000
vt 0.343750 0.000000
vt 0.406250 0.000000
vt 0.351562 0.000000
vt 0.398438 0.000000
vt 0.359375 0.000000
vt 0.367188 0.000000
vt 0.375000 0.000000
vt 0.390625 0.000000
vt 0.382812 0.000000
vn 0.0000 -0.0000 1.0000
usemtl Material
s off
f 4/1/1 6/2/1 5/3/1
f 4/1/1 7/4/1 6/2/1
f 3/5/1 7/4/1 4/1/1
f 2/6/1 7/4/1 3/5/1
f 2/6/1 8/7/1 7/4/1
f 1/8/1 8/7/1 2/6/1
f 10/9/1 12/10/1 11/11/1
f 10/9/1 13/12/1 12/10/1
f 9/13/1 13/12/1 10/9/1
f 1/8/1 9/13/1 8/7/1
f 1/8/1 13/12/1 9/13/1
f 129/14/1 13/12/1 1/8/1
f 129/14/1 14/15/1 13/12/1
f 128/16/1 14/15/1 129/14/1
f 128/16/1 15/17/1 14/15/1
f 127/18/1 15/17/1 128/16/1
f 126/19/1 15/17/1 127/18/1
f 126/19/1 16/20/1 15/17/1
f 120/21/1 122/22/1 121/23/1
f 125/24/1 16/20/1 126/19/1
f 119/25/1 122/22/1 120/21/1
f 118/26/1 122/22/1 119/25/1
f 117/27/1 122/22/1 118/26/1
f 117/27/1 123/28/1 122/22/1
f 116/29/1 123/28/1 117/27/1
f 124/30/1 16/20/1 125/24/1
f 124/30/1 17/31/1 16/20/1
f 116/29/1 124/30/1 123/28/1
f 116/29/1 17/31/1 124/30/1
f 115/32/1 17/31/1 116/29/1
f 114/33/1 17/31/1 115/32/1
f 114/33/1 18/34/1 17/31/1
f 113/35/1 18/34/1 114/33/1
f 113/35/1 19/36/1 18/34/1
f 112/37/1 19/36/1 113/35/1
f 111/38/1 19/36/1 112/37/1
f 111/38/1 96/39/1 19/36/1
f 96/39/1 20/40/1 19/36/1
f 96/39/1 21/41/1 20/40/1
f 111/38/1 97/42/1 96/39/1
f 95/43/1 76/44/1 96/39/1
f 76/44/1 21/41/1 96/39/1
f 76/44/1 22/45/1 21/41/1
f 110/46/1 97/42/1 111/38/1
f 95/43/1 77/47/1 76/44/1
f 75/48/1 22/45/1 76/44/1
f 94/49/1 77/47/1 95/43/1
f 74/50/1 22/45/1 75/48/1
f 110/46/1 98/51/1 97/42/1
f 93/52/1 77/47/1 94/49/1
f 73/53/1 22/45/1 74/50/1
f 93/52/1 78/54/1 77/47/1
f 73/53/1 23/55/1 22/45/1
f 72/56/1 24/57/1 73/53/1
f 24/57/1 23/55/1 73/53/1
f 109/58/1 98/51/1 110/46/1
f 109/58/1 99/59/1 98/51/1
f 72/56/1 25/60/1 24/57/1
f 108/61/1 99/59/1 109/58/1
f 72/56/1 26/62/1 25/60/1
f 71/63/1 26/62/1 72/56/1
f 93/52/1 79/64/1 78/54/1
f 71/63/1 27/65/1 26/62/1
f 108/61/1 100/66/1 99/59/1
f 92/67/1 79/64/1 93/52/1
f 70/68/1 27/65/1 71/63/1
f 70/68/1 28/69/1 27/65/1
f 36/70/1 38/71/1 37/72/1
f 36/70/1 39/73/1 38/71/1
f 35/74/1 39/73/1 36/70/1
f 70/68/1 29/75/1 28/69/1
f 69/76/1 29/75/1 70/68/1
f 34/77/1 39/73/1 35/74/1
f 92/67/1 80/78/1 79/64/1
f 69/76/1 30/79/1 29/75/1
f 34/77/1 40/80/1 39/73/1
f 33/81/1 40/80/1 34/77/1
f 108/61/1 101/82/1 100/66/1
f 107/83/1 101/82/1 108/61/1
f 91/84/1 80/78/1 92/67/1
f 69/76/1 31/85/1 30/79/1
f 32/86/1 40/80/1 33/81/1
f 91/84/1 81/87/1 80/78/1
f 68/88/1 31/85/1 69/76/1
f 107/83/1 102/89/1 101/82/1
f 31/85/1 40/80/1 32/86/1
f 68/88/1 40/80/1 31/85/1
f 68/88/1 41/90/1 40/80/1
f 67/91/1 41/90/1 68/88/1
f 107/83/1 103/92/1 102/89/1
f 66/93/1 41/90/1 67/91/1
f 106/94/1 103/92/1 107/83/1
f 90/95/1 81/87/1 91/84/1
f 65/96/1 41/90/1 66/93/1
f 90/95/1 82/97/1 81/87/1
f 64/98/1 63/99/1 65/96/1
f 63/99/1 41/90/1 65/96/1
f 62/100/1 41/90/1 63/99/1
f 105/101/1 103/92/1 106/94/1
f 89/102/1 82/97/1 90/95/1
f 105/101/1 104/103/1 103/92/1
f 61/104/1 41/90/1 62/100/1
f 60/105/1 41/90/1 61/104/1
f 88/106/1 82/97/1 89/102/1
f 88/106/1 83/107/1 82/97/1
f 60/105/1 42/108/1 41/90/1
f 88/106/1 84/109/1 83/107/1
f 59/110/1 42/108/1 60/105/1
f 88/106/1 85/111/1 84/109/1
f 88/106/1 86/112/1 85/111/1
f 87/113/1 86/112/1 88/106/1
f 58/114/1 42/108/1 59/110/1
f 58/114/1 43/115/1 42/108/1
f 57/116/1 43/115/1 58/114/1
f 56/117/1 43/115/1 57/116/1
f 56/117/1 44/118/1 43/115/1
f 55/119/1 44/118/1 56/117/1
f 54/120/1 44/118/1 55/119/1
f 54/120/1 45/121/1 44/118/1
f 53/122/1 45/121/1 54/120/1
f 53/122/1 46/123/1 45/121/1
f 52/124/1 46/123/1 53/122/1
f 52/124/1 47/125/1 46/123/1
f 52/124/1 48/126/1 47/125/1
f 52/124/1 49/127/1 48/126/1
f 51/128/1 49/127/1 52/124/1
f 50/129/1 49/127/1 51/128/1
