# Exported from Wings 3D 2.2.6.1
mtllib cube.mtl
o Cube
#8 vertices, 12 faces
v 1.00000000 1.00000000 -1.00000000
v 1.00000000 -1.00000000 -1.00000000
v 1.00000000 1.00000000 1.00000000
v 1.00000000 -1.00000000 1.00000000
v -1.00000000 1.00000000 -1.00000000
v -1.00000000 -1.00000000 -1.00000000
v -1.00000000 1.00000000 1.00000000
v -1.00000000 -1.00000000 1.00000000
vt 0.12500000 0.50000000
vt 0.12500000 0.75000000
vt 0.37500000 0.0000000e+0
vt 0.37500000 0.25000000
vt 0.37500000 0.50000000
vt 0.37500000 0.75000000
vt 0.37500000 1.00000000
vt 0.62500000 0.0000000e+0
vt 0.62500000 0.25000000
vt 0.62500000 0.50000000
vt 0.62500000 0.75000000
vt 0.62500000 1.00000000
vt 0.87500000 0.50000000
vt 0.87500000 0.75000000
vn 0.0000000e+0 1.00000000 0.0000000e+0
vn 0.0000000e+0 0.0000000e+0 -1.00000000
vn 1.00000000 0.0000000e+0 0.0000000e+0
vn 0.0000000e+0 -1.00000000 0.0000000e+0
vn 1.00000000 0.0000000e+0 0.0000000e+0
vn 0.0000000e+0 0.0000000e+0 -1.00000000
vn 0.0000000e+0 -1.00000000 0.0000000e+0
vn 0.0000000e+0 0.0000000e+0 -1.00000000
vn 1.00000000 0.0000000e+0 0.0000000e+0
vn 0.0000000e+0 1.00000000 0.0000000e+0
vn 0.0000000e+0 0.0000000e+0 1.00000000
vn 1.00000000 0.0000000e+0 0.0000000e+0
vn 0.0000000e+0 1.00000000 0.0000000e+0
vn 0.0000000e+0 0.0000000e+0 1.00000000
vn 1.00000000 0.0000000e+0 0.0000000e+0
vn 1.00000000 0.0000000e+0 0.0000000e+0
vn 0.0000000e+0 -1.00000000 0.0000000e+0
vn 0.0000000e+0 0.0000000e+0 1.00000000
vn 0.0000000e+0 1.00000000 0.0000000e+0
vn -1.00000000 0.0000000e+0 0.0000000e+0
vn 0.0000000e+0 0.0000000e+0 -1.00000000
vn 0.0000000e+0 1.00000000 0.0000000e+0
vn -1.00000000 0.0000000e+0 0.0000000e+0
vn 0.0000000e+0 0.0000000e+0 -1.00000000
vn 0.0000000e+0 -1.00000000 0.0000000e+0
vn 0.0000000e+0 0.0000000e+0 -1.00000000
vn -1.00000000 0.0000000e+0 0.0000000e+0
vn 0.0000000e+0 1.00000000 0.0000000e+0
vn 0.0000000e+0 0.0000000e+0 1.00000000
vn -1.00000000 0.0000000e+0 0.0000000e+0
vn 0.0000000e+0 0.0000000e+0 1.00000000
vn -1.00000000 0.0000000e+0 0.0000000e+0
vn 0.0000000e+0 -1.00000000 0.0000000e+0
vn -1.00000000 0.0000000e+0 0.0000000e+0
vn 0.0000000e+0 -1.00000000 0.0000000e+0
vn 0.0000000e+0 0.0000000e+0 1.00000000
g Cube_Material
usemtl Material
s 1
f 1/10/1 5/13/22 3/11/13
f 2/5/4 8/2/33 6/1/25
f 3/11/10 5/13/19 7/14/28
f 4/6/17 8/2/35 2/5/7
s 2
f 2/5/8 5/9/24 1/10/2
f 3/11/14 8/7/36 4/6/18
f 6/4/26 5/9/21 2/5/6
f 7/12/29 8/7/31 3/11/11
s 3
f 1/10/3 3/11/15 2/5/9
f 2/5/5 3/11/12 4/6/16
f 5/9/20 8/3/32 7/8/30
f 6/4/27 8/3/34 5/9/23
